<svg viewBox="0 0 100 100" xmlns="http://www.w3.org/2000/svg">
  <rect width="100" height="100" rx="22" fill="#534AB7"/>
  <path d="M50 18 L72 27 L72 52 C72 64 62 73 50 78 C38 73 28 64 28 52 L28 27 Z" fill="white" opacity="0.15"/>
  <path d="M50 22 L70 30 L70 52 C70 63 61 71 50 76 C39 71 30 63 30 52 L30 30 Z" fill="none" stroke="white" stroke-width="2.5" opacity="0.9"/>
  <path d="M57 40 C55 37 52 36 50 36 C44 36 40 41 40 47 C40 53 44 58 50 58 C53 58 56 56 58 53" stroke="white" stroke-width="3.5" stroke-linecap="round" fill="none"/>
</svg>